<svg width="240" height="31" viewBox="0 0 240 31" fill="none" xmlns="http://www.w3.org/2000/svg">
<g id="DOOROPEN" clip-path="url(#clip0_1067_15279)">
<path id="Vector" d="M100.216 0.689941H111.077C118.675 0.689941 123.704 4.57418 123.704 10.4868C123.704 14.3217 121.649 17.3273 118.161 18.9861L124.449 30.3021H115.551L110.423 20.415H107.904V30.3021H100.216V0.689941ZM107.904 7.39087V13.7223H111.682C114.01 13.7223 115.551 12.433 115.551 10.4868C115.551 8.54054 114.01 7.39087 111.682 7.39087H107.904Z" fill="white"/>
<path id="Vector_2" d="M161.831 0.689941H172.693C180.29 0.689941 185.319 4.75484 185.319 10.9466C185.319 17.1384 180.282 21.3429 172.643 21.3429H169.52V30.3021H161.831V0.689941ZM169.52 7.39087V14.642H173.297C175.626 14.642 177.167 13.1638 177.167 10.9466C177.167 8.72941 175.626 7.39087 173.297 7.39087H169.52Z" fill="white"/>
<path id="Vector_3" d="M189.056 0.689941H208.907V7.85074H196.744V11.735H207.042V18.8958H196.744V23.1495H208.907V30.3103H189.056V0.689941Z" fill="white"/>
<path id="Vector_4" d="M220.795 13.4431V30.3021H213.106V0.689941H221.358L232.311 17.8282V0.689941H240V30.3021H231.748L220.795 13.4431Z" fill="white"/>
<path id="Vector_5" d="M141.972 0C133.347 0 126.313 6.93086 126.313 15.4795C126.313 24.0281 133.347 31 141.972 31C150.597 31 157.631 24.0691 157.631 15.5205C157.631 6.97192 150.597 0 141.972 0Z" fill="#FF7C32"/>
<path id="Vector_6" d="M10.8616 0.689941H0V30.3021H10.8616C20.6048 30.3021 27.7796 24.0693 27.7796 15.5617C27.7796 7.05418 20.5965 0.689941 10.8616 0.689941Z" fill="#124F9C"/>
<path id="Vector_7" d="M46.2387 0C37.614 0 30.5801 6.93086 30.5801 15.4795C30.5801 24.0281 37.614 31 46.2387 31C54.8634 31 61.8974 24.0691 61.8974 15.5205C61.8974 6.97192 54.8551 0 46.2387 0Z" fill="#F6F973"/>
<path id="Vector_8" d="M80.3559 0C71.7312 0 64.6973 6.93086 64.6973 15.4795C64.6973 24.0281 71.7312 31 80.3559 31C88.9806 31 96.0146 24.0691 96.0146 15.5205C96.0146 6.97192 88.9806 0 80.3559 0Z" fill="#7BFF8F"/>
</g>
<defs>
<clipPath id="clip0_1067_15279">
<rect width="240" height="31" fill="white"/>
</clipPath>
</defs>
</svg>
