<svg width="35" height="35" viewBox="0 0 35 35" fill="none" xmlns="http://www.w3.org/2000/svg">
<path d="M30.6668 20.548C30.6246 20.4106 30.5557 20.2829 30.464 20.1721C30.3724 20.0613 30.2599 19.9697 30.1328 19.9025C30.0058 19.8353 29.8667 19.7937 29.7236 19.7802C29.5805 19.7668 29.4362 19.7816 29.2988 19.824C27.3414 20.3619 25.2764 20.3715 23.314 19.852C21.3516 19.3324 19.562 18.3022 18.1271 16.8661C16.6923 15.4301 15.6636 13.6396 15.1457 11.6767C14.6278 9.71394 14.6392 7.64895 15.1788 5.69198C15.2355 5.5028 15.2399 5.30181 15.1916 5.11033C15.1433 4.91884 15.0441 4.744 14.9044 4.60436C14.7648 4.46472 14.5899 4.36548 14.3984 4.31717C14.207 4.26886 14.006 4.27329 13.8168 4.32998C11.5176 4.97345 9.42697 6.20771 7.75286 7.90998C6.07875 9.61224 4.87952 11.7232 4.27448 14.0328C3.66944 16.3424 3.67967 18.7701 4.30416 21.0746C4.92864 23.379 6.14561 25.4797 7.83401 27.1678C9.5224 28.8559 11.6234 30.0725 13.9279 30.6966C16.2324 31.3207 18.6602 31.3305 20.9697 30.725C23.2792 30.1196 25.3899 28.92 27.0919 27.2456C28.7938 25.5711 30.0277 23.4803 30.6708 21.181C30.7319 20.9742 30.7305 20.754 30.6668 20.548Z" fill="#222222"/>
</svg>
