<svg width="31" height="31" viewBox="0 0 31 31" fill="none" xmlns="http://www.w3.org/2000/svg">
<path d="M15.5001 24.797C20.6347 24.797 24.7971 20.6346 24.7971 15.5C24.7971 10.3654 20.6347 6.203 15.5001 6.203C10.3655 6.203 6.20312 10.3654 6.20312 15.5C6.20312 20.6346 10.3655 24.797 15.5001 24.797Z" fill="white"/>
<path d="M15.5005 4.01502C15.7906 4.01502 16.0689 3.89976 16.274 3.69459C16.4792 3.48943 16.5945 3.21117 16.5945 2.92102V1.82802C16.5859 1.54373 16.4669 1.27396 16.2628 1.07591C16.0586 0.877857 15.7854 0.76709 15.501 0.76709C15.2165 0.76709 14.9433 0.877857 14.7392 1.07591C14.535 1.27396 14.4161 1.54373 14.4075 1.82802V2.92202C14.4075 3.21216 14.5227 3.49043 14.7279 3.69559C14.9331 3.90076 15.2113 4.01602 15.5015 4.01602L15.5005 4.01502Z" fill="white"/>
<path d="M5.83271 7.37801C6.04136 7.56183 6.31217 7.6593 6.59011 7.65061C6.86804 7.64192 7.13223 7.52772 7.32899 7.33122C7.52574 7.13472 7.64028 6.87067 7.64933 6.59275C7.65838 6.31483 7.56126 6.04389 7.37771 5.83501L6.60471 5.06201C6.50445 4.95542 6.38382 4.87004 6.24998 4.8109C6.11613 4.75177 5.97178 4.72009 5.82546 4.71773C5.67915 4.71538 5.53385 4.7424 5.39817 4.7972C5.26249 4.852 5.13918 4.93346 5.03554 5.03677C4.93191 5.14007 4.85005 5.26312 4.79481 5.39862C4.73957 5.53412 4.71208 5.67933 4.71396 5.82565C4.71584 5.97197 4.74705 6.11642 4.80575 6.25046C4.86446 6.3845 4.94945 6.5054 5.05571 6.60601L5.83271 7.37801Z" fill="white"/>
<path d="M2.92237 14.406H1.82837C1.53823 14.406 1.25996 14.5213 1.0548 14.7264C0.849635 14.9316 0.734375 15.2099 0.734375 15.5C0.734375 15.7902 0.849635 16.0684 1.0548 16.2736C1.25996 16.4787 1.53823 16.594 1.82837 16.594H2.92237C3.20667 16.5854 3.47643 16.4664 3.67448 16.2623C3.87254 16.0582 3.9833 15.7849 3.9833 15.5005C3.9833 15.2161 3.87254 14.9428 3.67448 14.7387C3.47643 14.5346 3.20667 14.4146 2.92237 14.406Z" fill="white"/>
<path d="M5.83379 23.62L5.0608 24.393C4.86522 24.5999 4.75797 24.8748 4.76182 25.1594C4.76566 25.4441 4.8803 25.716 5.0814 25.9175C5.28249 26.1189 5.55419 26.2341 5.83882 26.2385C6.12345 26.2429 6.39858 26.1362 6.6058 25.941L7.3788 25.168C7.57925 24.9619 7.69051 24.6852 7.68851 24.3977C7.68651 24.1102 7.57141 23.835 7.36811 23.6317C7.16481 23.4284 6.88965 23.3133 6.60215 23.3113C6.31464 23.3093 6.0379 23.4206 5.8318 23.621L5.83379 23.62Z" fill="white"/>
<path d="M15.5005 26.984C15.2103 26.984 14.9321 27.0993 14.7269 27.3044C14.5218 27.5096 14.4065 27.7879 14.4065 28.078V29.172C14.4065 29.4622 14.5218 29.7404 14.7269 29.9456C14.9321 30.1508 15.2103 30.266 15.5005 30.266C15.7906 30.266 16.0689 30.1508 16.2741 29.9456C16.4792 29.7404 16.5945 29.4622 16.5945 29.172V28.078C16.5945 27.7879 16.4792 27.5096 16.2741 27.3044C16.0689 27.0993 15.7906 26.984 15.5005 26.984Z" fill="white"/>
<path d="M25.1673 23.621C24.9612 23.4206 24.6844 23.3093 24.3969 23.3113C24.1094 23.3133 23.8343 23.4284 23.631 23.6317C23.4277 23.835 23.3126 24.1102 23.3106 24.3977C23.3086 24.6852 23.4198 24.9619 23.6203 25.168L24.3933 25.941C24.5994 26.1415 24.8761 26.2527 25.1636 26.2507C25.4512 26.2487 25.7263 26.1336 25.9296 25.9303C26.1329 25.727 26.248 25.4519 26.25 25.1644C26.252 24.8769 26.1407 24.6001 25.9403 24.394L25.1673 23.621Z" fill="white"/>
<path d="M29.1724 14.406H28.0784C27.7882 14.406 27.51 14.5213 27.3048 14.7264C27.0996 14.9316 26.9844 15.2099 26.9844 15.5C26.9844 15.7902 27.0996 16.0684 27.3048 16.2736C27.51 16.4787 27.7882 16.594 28.0784 16.594H29.1724C29.4567 16.5854 29.7264 16.4664 29.9245 16.2623C30.1225 16.0582 30.2333 15.7849 30.2333 15.5005C30.2333 15.2161 30.1225 14.9428 29.9245 14.7387C29.7264 14.5346 29.4567 14.4146 29.1724 14.406Z" fill="white"/>
<path d="M24.3937 7.70005C24.5372 7.70019 24.6794 7.672 24.812 7.61708C24.9447 7.56217 25.0652 7.48162 25.1666 7.38005L25.9396 6.60704C26.1401 6.40093 26.2514 6.1242 26.2494 5.8367C26.2474 5.54919 26.1323 5.27403 25.929 5.07073C25.7257 4.86743 25.4505 4.75233 25.163 4.75033C24.8755 4.74833 24.5988 4.85959 24.3926 5.06004L23.6197 5.83305C23.4669 5.98604 23.3629 6.18087 23.3208 6.39293C23.2786 6.605 23.3003 6.82479 23.383 7.02455C23.4657 7.22431 23.6058 7.39508 23.7855 7.51531C23.9652 7.63553 24.1764 7.69982 24.3926 7.70005H24.3937Z" fill="white"/>
</svg>
