<svg width="20" height="18" viewBox="0 0 20 18" fill="none" xmlns="http://www.w3.org/2000/svg">
<path d="M13.5539 6.26944L11.6234 9.36988H13.5147L15.1719 6.18727L11.6737 0.600098H5.20083L4.45801 1.88618H10.9758L13.5539 6.26944Z" fill="#2A72E5"/>
<path d="M5.77535 7.16565L9.49274 7.2087L8.73883 5.77979L5.15187 5.79478L1.8623 11.4426L5.20013 17.2254H6.76535L3.36948 11.6448L5.77535 7.16565Z" fill="#2A72E5"/>
<path d="M14.281 10.6384H10.5088L11.2366 12.0288H14.8236L18.1399 6.38879L14.8027 0.600098H13.1723L16.6288 6.12792L14.281 10.6384Z" fill="#2A72E5"/>
<path d="M9.50278 4.50869L11.1795 7.68022L12.0678 6.25391L10.2482 3.15674H3.72648L0.400391 8.91348L1.12822 10.1741L4.41778 4.52695L9.50278 4.50869Z" fill="#2A72E5"/>
<path d="M6.43474 11.5529L8.3567 8.46684L6.53061 8.44531L4.83496 11.6071L8.25496 17.2275H14.8008L15.5463 15.9362H9.01279L6.43474 11.5529Z" fill="#2A72E5"/>
<path d="M18.8745 7.65576L15.5549 13.3016H10.468L8.8108 10.1366L7.91797 11.5714L9.73753 14.6647H16.2815L19.6017 8.91315L18.8745 7.65576Z" fill="#2A72E5"/>
</svg>
