<svg width="202" height="45" viewBox="0 0 202 45" fill="none" xmlns="http://www.w3.org/2000/svg">
<path d="M58.167 30.685H56.028C55.6547 30.685 55.468 30.5067 55.468 30.15V17.396C55.4736 17.358 55.4702 17.3191 55.458 17.2826C55.4459 17.2461 55.4255 17.213 55.3983 17.1858C55.3711 17.1586 55.3379 17.1381 55.3014 17.126C55.2649 17.1139 55.2261 17.1105 55.188 17.116H46.851C46.7784 17.1262 46.7045 17.1194 46.635 17.0961C46.5655 17.0728 46.5023 17.0336 46.4505 16.9817C46.3988 16.9299 46.3598 16.8667 46.3366 16.7971C46.3134 16.7276 46.3067 16.6536 46.317 16.581V14.85C46.3065 14.7774 46.313 14.7033 46.3361 14.6337C46.3592 14.564 46.3982 14.5007 46.4501 14.4488C46.5019 14.3969 46.5651 14.3577 46.6347 14.3345C46.7043 14.3113 46.7784 14.3046 46.851 14.315H67.345C67.4177 14.3046 67.4918 14.3114 67.5614 14.3346C67.631 14.3578 67.6943 14.3969 67.7462 14.4488C67.7981 14.5007 67.8373 14.564 67.8605 14.6336C67.8837 14.7033 67.8904 14.7773 67.88 14.85V16.581C67.8904 16.6537 67.8837 16.7278 67.8605 16.7974C67.8373 16.867 67.7981 16.9303 67.7462 16.9822C67.6943 17.0341 67.631 17.0732 67.5614 17.0964C67.4918 17.1197 67.4177 17.1264 67.345 17.116H59.008C58.804 17.116 58.702 17.2093 58.702 17.396V30.151C58.7124 30.2236 58.7058 30.2977 58.6825 30.3673C58.6593 30.4369 58.6202 30.5001 58.5682 30.552C58.5163 30.6038 58.453 30.6428 58.3834 30.6659C58.3137 30.689 58.2396 30.6955 58.167 30.685Z" fill="black"/>
<path d="M86.802 30.685H73.761C73.1983 30.7212 72.6341 30.6453 72.1009 30.4618C71.5677 30.2783 71.0763 29.9908 70.6551 29.616C70.2715 29.2046 69.9765 28.7189 69.7881 28.189C69.5998 27.6591 69.5222 27.0961 69.5601 26.535V18.464C69.5222 17.9028 69.5998 17.3399 69.7881 16.81C69.9765 16.28 70.2715 15.7944 70.6551 15.383C71.0763 15.0081 71.5677 14.7206 72.1009 14.5371C72.634 14.3536 73.1983 14.2777 73.761 14.314H86.802C87.3647 14.2778 87.929 14.3537 88.4622 14.5372C88.9954 14.7207 89.4868 15.0082 89.9081 15.383C90.2914 15.7947 90.5862 16.2805 90.7744 16.8106C90.9625 17.3407 91.04 17.9038 91.002 18.465V26.536C91.0398 27.0971 90.962 27.66 90.7737 28.1899C90.5854 28.7198 90.2904 29.2055 89.907 29.617C89.4858 29.9915 88.9945 30.2787 88.4615 30.462C87.9285 30.6453 87.3645 30.7211 86.802 30.685ZM74.269 27.885H86.269C86.4751 27.9282 86.6887 27.9194 86.8905 27.8593C87.0923 27.7992 87.276 27.6897 87.4249 27.5408C87.5738 27.392 87.6832 27.2083 87.7433 27.0065C87.8034 26.8047 87.8122 26.5911 87.769 26.385V18.62C87.8122 18.4139 87.8034 18.2003 87.7433 17.9985C87.6832 17.7967 87.5738 17.613 87.4249 17.4641C87.276 17.3152 87.0923 17.2058 86.8905 17.1457C86.6887 17.0856 86.4751 17.0768 86.269 17.12H74.269C74.0648 17.0988 73.8583 17.1182 73.6616 17.1773C73.4649 17.2363 73.2819 17.3338 73.123 17.464C72.8701 17.7942 72.7518 18.208 72.7921 18.622V26.387C72.7516 26.8013 72.8699 27.2155 73.123 27.546C73.2824 27.6755 73.4658 27.7721 73.6626 27.8303C73.8595 27.8884 74.066 27.907 74.2701 27.885H74.269Z" fill="black"/>
<path d="M96.705 30.685H94.592C94.5194 30.6954 94.4453 30.6887 94.3756 30.6654C94.306 30.6422 94.2427 30.6031 94.1908 30.5512C94.1389 30.4993 94.0998 30.436 94.0766 30.3664C94.0534 30.2967 94.0467 30.2227 94.057 30.15V14.85C94.0467 14.7773 94.0534 14.7033 94.0766 14.6336C94.0998 14.564 94.1389 14.5007 94.1908 14.4488C94.2427 14.3969 94.306 14.3578 94.3756 14.3346C94.4453 14.3113 94.5194 14.3046 94.592 14.315H96.501C96.857 14.315 96.889 14.333 97.237 14.634L112.207 26.019H112.307V14.85C112.296 14.7773 112.303 14.7031 112.326 14.6334C112.349 14.5637 112.388 14.5003 112.44 14.4483C112.492 14.3964 112.556 14.3573 112.625 14.3341C112.695 14.311 112.769 14.3044 112.842 14.315H114.955C115.028 14.3046 115.102 14.3113 115.171 14.3346C115.241 14.3578 115.304 14.3969 115.356 14.4488C115.408 14.5007 115.447 14.564 115.47 14.6336C115.494 14.7033 115.5 14.7773 115.49 14.85V30.15C115.5 30.2227 115.494 30.2967 115.47 30.3664C115.447 30.436 115.408 30.4993 115.356 30.5512C115.304 30.6031 115.241 30.6422 115.171 30.6654C115.102 30.6887 115.028 30.6954 114.955 30.685H113.097C112.723 30.685 112.644 30.554 112.232 30.233L97.341 19.008H97.241V30.151C97.2515 30.2237 97.2448 30.2979 97.2215 30.3676C97.1982 30.4373 97.159 30.5006 97.1069 30.5524C97.0549 30.6043 96.9915 30.6433 96.9217 30.6663C96.8519 30.6893 96.7777 30.6957 96.705 30.685Z" fill="black"/>
<path d="M118.394 26.508V25.999C118.384 25.9263 118.39 25.8523 118.414 25.7826C118.437 25.713 118.476 25.6497 118.528 25.5978C118.58 25.5459 118.643 25.5068 118.713 25.4836C118.782 25.4603 118.856 25.4537 118.929 25.464H121.093C121.166 25.4537 121.24 25.4603 121.309 25.4836C121.379 25.5068 121.442 25.5459 121.494 25.5978C121.546 25.6497 121.585 25.713 121.608 25.7826C121.632 25.8523 121.638 25.9263 121.628 25.999V26.199C121.601 26.434 121.621 26.672 121.686 26.8993C121.752 27.1266 121.862 27.3386 122.01 27.523C122.419 27.8058 122.916 27.9322 123.41 27.879H134.797C135.046 27.9399 135.306 27.9352 135.552 27.8654C135.798 27.7957 136.022 27.6632 136.201 27.481C136.381 27.2987 136.51 27.073 136.576 26.8259C136.643 26.5787 136.644 26.3186 136.579 26.071V25.426C136.588 25.201 136.537 24.9778 136.431 24.7788C136.326 24.5799 136.17 24.4123 135.979 24.293C135.508 24.043 134.976 23.931 134.444 23.97C133.844 23.97 123.065 24.013 122.377 23.87C121.722 23.7355 121.08 23.5482 120.455 23.31C119.819 23.044 119.293 22.5679 118.965 21.961C118.536 21.1694 118.329 20.2766 118.365 19.377V18.486C118.33 17.923 118.412 17.3589 118.605 16.8289C118.798 16.2988 119.098 15.8141 119.486 15.405C119.905 15.0254 120.396 14.7332 120.929 14.5454C121.462 14.3575 122.028 14.2778 122.592 14.311H135.328C135.897 14.2765 136.466 14.3555 137.004 14.5433C137.542 14.7311 138.037 15.024 138.46 15.405C138.848 15.8143 139.148 16.299 139.34 16.8291C139.533 17.3591 139.615 17.9231 139.58 18.486V18.97C139.59 19.0427 139.584 19.1168 139.56 19.1864C139.537 19.256 139.498 19.3193 139.446 19.3712C139.394 19.4231 139.331 19.4622 139.261 19.4854C139.192 19.5087 139.118 19.5154 139.045 19.505H136.881C136.808 19.5154 136.734 19.5087 136.665 19.4854C136.595 19.4622 136.532 19.4231 136.48 19.3712C136.428 19.3193 136.389 19.256 136.366 19.1864C136.342 19.1168 136.336 19.0427 136.346 18.97V18.817C136.403 18.3345 136.265 17.8492 135.964 17.468C135.555 17.1857 135.058 17.0594 134.564 17.112H123.385C122.88 17.0516 122.373 17.1932 121.972 17.506C121.672 17.9603 121.542 18.5053 121.603 19.046V19.784C121.603 20.584 122.295 21.114 123.691 21.159C125.276 21.21 135.863 20.974 137.725 21.43C138.374 21.6824 138.906 22.1681 139.215 22.792C139.642 23.5567 139.85 24.4247 139.815 25.3V26.508C139.85 27.0709 139.768 27.6349 139.575 28.1649C139.383 28.695 139.083 29.1797 138.695 29.589C138.276 29.9686 137.785 30.2608 137.252 30.4487C136.719 30.6365 136.153 30.7162 135.589 30.683H122.626C122.062 30.7162 121.496 30.6365 120.963 30.4487C120.43 30.2608 119.939 29.9686 119.52 29.589C119.131 29.1802 118.83 28.6957 118.636 28.1657C118.443 27.6356 118.36 27.0713 118.394 26.508Z" fill="black"/>
<path d="M145.541 30.69H144.115C143.866 30.69 143.742 30.5713 143.742 30.334V21.834C143.746 21.8086 143.743 21.7827 143.735 21.7583C143.727 21.7339 143.714 21.7118 143.695 21.6936C143.677 21.6754 143.655 21.6618 143.631 21.6537C143.606 21.6456 143.58 21.6433 143.555 21.647H141.62C141.572 21.654 141.522 21.6497 141.476 21.6342C141.429 21.6188 141.387 21.5927 141.352 21.558C141.317 21.5233 141.291 21.4811 141.276 21.4345C141.26 21.388 141.256 21.3385 141.263 21.29V20.136C141.256 20.0875 141.261 20.0382 141.276 19.9918C141.292 19.9454 141.318 19.9032 141.352 19.8687C141.387 19.8341 141.429 19.8081 141.476 19.7927C141.522 19.7773 141.572 19.773 141.62 19.78H148.036C148.084 19.7731 148.134 19.7776 148.18 19.7931C148.226 19.8086 148.268 19.8346 148.303 19.8692C148.337 19.9037 148.363 19.9458 148.379 19.9921C148.394 20.0384 148.399 20.0876 148.392 20.136V21.29C148.399 21.3384 148.395 21.3878 148.379 21.4342C148.364 21.4807 148.338 21.5229 148.303 21.5575C148.269 21.5922 148.227 21.6183 148.18 21.6338C148.134 21.6494 148.084 21.6539 148.036 21.647H146.101C145.966 21.647 145.901 21.709 145.901 21.834V30.334C145.908 30.3827 145.903 30.4324 145.888 30.4791C145.872 30.5257 145.846 30.5681 145.811 30.6027C145.776 30.6373 145.733 30.6632 145.686 30.6784C145.639 30.6935 145.59 30.6975 145.541 30.69Z" fill="black"/>
<path d="M150.818 30.69H149.189C148.985 30.69 148.918 30.5713 148.989 30.334L151.67 20.134C151.7 20.0247 151.767 19.9293 151.86 19.8643C151.953 19.7993 152.066 19.7688 152.179 19.778H154.437C154.551 19.762 154.667 19.7899 154.762 19.8559C154.856 19.922 154.922 20.0213 154.946 20.134L157.628 30.334C157.695 30.572 157.628 30.6907 157.428 30.69H155.799C155.754 30.6954 155.707 30.6915 155.664 30.6784C155.62 30.6653 155.579 30.6434 155.544 30.614C155.487 30.531 155.452 30.4344 155.444 30.334L154.969 28.467H151.659L151.184 30.334C151.175 30.436 151.137 30.5333 151.074 30.614C151.039 30.6433 150.998 30.6651 150.954 30.6782C150.91 30.6912 150.864 30.6953 150.818 30.69ZM153.279 21.83L152.057 26.735H154.569L153.347 21.83H153.279Z" fill="black"/>
<path d="M160.934 30.69H159.491C159.443 30.6968 159.393 30.6923 159.347 30.6769C159.301 30.6614 159.259 30.6354 159.224 30.6008C159.19 30.5663 159.164 30.5242 159.148 30.4779C159.133 30.4316 159.128 30.3823 159.135 30.334V20.134C159.128 20.0857 159.133 20.0364 159.148 19.9901C159.164 19.9438 159.19 19.9017 159.224 19.8672C159.259 19.8326 159.301 19.8066 159.347 19.7911C159.393 19.7757 159.443 19.7712 159.491 19.778H163.531C163.907 19.7561 164.284 19.8094 164.639 19.9348C164.995 20.0601 165.322 20.255 165.601 20.508C165.86 20.7808 166.06 21.1039 166.188 21.4573C166.317 21.8107 166.371 22.1867 166.348 22.562V23.886C166.404 24.4165 166.287 24.9509 166.015 25.4096C165.743 25.8683 165.329 26.2269 164.837 26.432V26.5L166.653 30.285C166.755 30.557 166.659 30.6927 166.364 30.692H164.989C164.839 30.7013 164.688 30.6781 164.548 30.624C164.441 30.5588 164.362 30.4557 164.327 30.335L162.627 26.669H161.49C161.357 26.669 161.29 26.731 161.29 26.855V30.334C161.297 30.3823 161.292 30.4316 161.277 30.4779C161.261 30.5242 161.235 30.5663 161.201 30.6008C161.166 30.6354 161.124 30.6614 161.078 30.6769C161.032 30.6923 160.982 30.6968 160.934 30.69ZM161.477 24.936H163.14C163.426 24.9604 163.71 24.8789 163.94 24.707C164.032 24.6091 164.103 24.4927 164.147 24.3654C164.191 24.2382 164.207 24.1031 164.195 23.969V22.64C164.208 22.5019 164.192 22.3627 164.148 22.2312C164.104 22.0997 164.033 21.9787 163.94 21.876C163.713 21.6989 163.427 21.6143 163.14 21.639H161.477C161.452 21.6353 161.426 21.6376 161.401 21.6457C161.377 21.6538 161.355 21.6675 161.337 21.6856C161.318 21.7038 161.305 21.7259 161.297 21.7503C161.289 21.7747 161.286 21.8006 161.29 21.826V24.745C161.286 24.7704 161.289 24.7963 161.297 24.8207C161.305 24.845 161.319 24.8671 161.337 24.8851C161.356 24.9032 161.378 24.9167 161.402 24.9247C161.427 24.9327 161.453 24.9348 161.478 24.931L161.477 24.936Z" fill="black"/>
<path d="M171.797 30.69H170.371C170.122 30.69 169.998 30.5713 169.998 30.334V21.834C170.002 21.8086 169.999 21.7827 169.991 21.7583C169.983 21.7339 169.97 21.7118 169.951 21.6936C169.933 21.6754 169.911 21.6618 169.887 21.6537C169.862 21.6456 169.836 21.6433 169.811 21.647H167.876C167.828 21.6539 167.778 21.6494 167.732 21.6338C167.685 21.6183 167.643 21.5922 167.609 21.5575C167.574 21.5229 167.548 21.4807 167.533 21.4342C167.517 21.3878 167.513 21.3384 167.52 21.29V20.136C167.513 20.0876 167.518 20.0384 167.533 19.9921C167.549 19.9458 167.575 19.9037 167.609 19.8692C167.644 19.8346 167.686 19.8086 167.732 19.7931C167.778 19.7777 167.828 19.7732 167.876 19.78H174.292C174.34 19.7732 174.39 19.7777 174.436 19.7931C174.482 19.8086 174.524 19.8346 174.559 19.8692C174.593 19.9037 174.619 19.9458 174.635 19.9921C174.65 20.0384 174.655 20.0876 174.648 20.136V21.29C174.655 21.3384 174.651 21.3878 174.635 21.4342C174.62 21.4807 174.594 21.5229 174.559 21.5575C174.525 21.5922 174.483 21.6183 174.436 21.6338C174.39 21.6494 174.34 21.6539 174.292 21.647H172.357C172.224 21.647 172.157 21.7093 172.157 21.834V30.334C172.164 30.3827 172.159 30.4324 172.144 30.4791C172.128 30.5257 172.102 30.5681 172.067 30.6027C172.032 30.6373 171.989 30.6632 171.942 30.6784C171.895 30.6935 171.846 30.6975 171.797 30.69Z" fill="black"/>
<path d="M181.846 30.69H176.295C176.247 30.6968 176.197 30.6923 176.151 30.6769C176.105 30.6614 176.063 30.6354 176.028 30.6008C175.994 30.5663 175.968 30.5242 175.952 30.4779C175.937 30.4316 175.932 30.3823 175.939 30.334V20.134C175.932 20.0857 175.937 20.0364 175.952 19.9901C175.968 19.9438 175.994 19.9017 176.028 19.8672C176.063 19.8326 176.105 19.8066 176.151 19.7911C176.197 19.7757 176.247 19.7712 176.295 19.778H181.846C182.072 19.778 182.185 19.8967 182.185 20.134V21.288C182.185 21.5253 182.072 21.6443 181.846 21.645H178.299C178.166 21.645 178.099 21.7073 178.099 21.832V24.038C178.099 24.163 178.167 24.224 178.299 24.224H181.199C181.247 24.2172 181.297 24.2217 181.343 24.2371C181.389 24.2526 181.431 24.2787 181.466 24.3132C181.5 24.3477 181.526 24.3898 181.542 24.4361C181.557 24.4824 181.562 24.5317 181.555 24.58V25.735C181.562 25.7834 181.557 25.8326 181.542 25.8789C181.526 25.9253 181.5 25.9673 181.466 26.0019C181.431 26.0364 181.389 26.0624 181.343 26.0779C181.297 26.0933 181.247 26.0978 181.199 26.091H178.299C178.163 26.091 178.099 26.153 178.099 26.278V28.637C178.099 28.762 178.167 28.824 178.299 28.824H181.846C182.072 28.824 182.185 28.9427 182.185 29.18V30.334C182.185 30.5713 182.072 30.69 181.846 30.69Z" fill="black"/>
<path d="M185.868 30.69H184.425C184.377 30.6968 184.327 30.6923 184.281 30.6769C184.235 30.6614 184.193 30.6354 184.158 30.6008C184.124 30.5663 184.098 30.5242 184.082 30.4779C184.067 30.4316 184.062 30.3823 184.069 30.334V20.134C184.062 20.0856 184.067 20.0364 184.082 19.9901C184.098 19.9438 184.124 19.9017 184.158 19.8671C184.193 19.8326 184.235 19.8066 184.281 19.7911C184.327 19.7757 184.377 19.7712 184.425 19.778H188.465C188.841 19.7561 189.218 19.8094 189.573 19.9347C189.929 20.06 190.256 20.2549 190.535 20.508C190.794 20.7808 190.994 21.1039 191.122 21.4573C191.251 21.8107 191.305 22.1867 191.282 22.562V23.886C191.338 24.4165 191.221 24.9509 190.949 25.4096C190.676 25.8683 190.263 26.2269 189.771 26.432V26.5L191.587 30.285C191.689 30.557 191.593 30.6927 191.298 30.692H189.923C189.773 30.7013 189.622 30.6781 189.482 30.624C189.375 30.5588 189.296 30.4557 189.261 30.335L187.561 26.669H186.424C186.291 26.669 186.224 26.731 186.224 26.855V30.334C186.231 30.3823 186.226 30.4316 186.211 30.4779C186.195 30.5242 186.169 30.5663 186.135 30.6008C186.1 30.6354 186.058 30.6614 186.012 30.6769C185.966 30.6923 185.916 30.6968 185.868 30.69ZM186.411 24.936H188.074C188.36 24.9604 188.644 24.8789 188.874 24.707C188.966 24.6091 189.037 24.4927 189.081 24.3654C189.125 24.2382 189.141 24.1031 189.129 23.969V22.64C189.142 22.5019 189.126 22.3627 189.082 22.2312C189.038 22.0997 188.967 21.9787 188.874 21.876C188.647 21.6988 188.361 21.6142 188.074 21.639H186.411C186.386 21.6353 186.36 21.6376 186.335 21.6457C186.311 21.6538 186.289 21.6675 186.271 21.6856C186.252 21.7038 186.239 21.7259 186.231 21.7503C186.223 21.7747 186.22 21.8006 186.224 21.826V24.745C186.22 24.7703 186.223 24.7961 186.231 24.8204C186.239 24.8446 186.253 24.8666 186.271 24.8847C186.289 24.9027 186.311 24.9163 186.336 24.9243C186.36 24.9324 186.386 24.9346 186.411 24.931V24.936Z" fill="black"/>
<path d="M29.78 18.524L26.88 23.185H29.72L32.211 18.4L26.957 10H17.218L16.102 11.934H25.902L29.78 18.524Z" fill="#2A72E5"/>
<path d="M18.086 19.871L23.678 19.936L22.542 17.787L17.142 17.81L12.196 26.301L17.218 35.001H19.573L14.467 26.611L18.086 19.871Z" fill="#2A72E5"/>
<path d="M30.877 25.093H25.206L26.301 27.184H31.701L36.687 18.704L31.655 10.004H29.21L34.41 18.315L30.877 25.093Z" fill="#2A72E5"/>
<path d="M23.689 15.872L26.21 20.64L27.546 18.495L24.81 13.844H15L10 22.5L11.094 24.4L16.04 15.909L23.689 15.872Z" fill="#2A72E5"/>
<path d="M19.076 26.468L21.965 21.828L19.221 21.796L16.67 26.55L21.812 35H31.654L32.775 33.058H22.952L19.076 26.468Z" fill="#2A72E5"/>
<path d="M37.78 20.609L32.789 29.098H25.143L22.652 24.34L21.31 26.496L24.046 31.147H33.88L38.872 22.5L37.78 20.609Z" fill="#2A72E5"/>
</svg>
