<svg width="30" height="19" viewBox="0 0 30 19" fill="none" xmlns="http://www.w3.org/2000/svg">
<path opacity="0.7" d="M18.0026 0.88233L10.3381 8.61474C10.2309 8.72245 10.1459 8.85044 10.0879 8.99137C10.0299 9.1323 10 9.28341 10 9.43602C10 9.58862 10.0299 9.73972 10.0879 9.88066C10.1459 10.0216 10.2309 10.1496 10.3381 10.2573L18.0026 17.9867C18.2211 18.1916 18.5098 18.3029 18.808 18.2974C19.1061 18.2919 19.3906 18.1699 19.6015 17.9572C19.8123 17.7444 19.9332 17.4575 19.9387 17.1567C19.9441 16.8558 19.8338 16.5646 19.6307 16.3442L12.7803 9.43305L19.6322 2.52191C19.7456 2.41557 19.8366 2.28726 19.8998 2.14464C19.963 2.00201 19.997 1.848 19.9998 1.69182C20.0026 1.53564 19.9742 1.38049 19.9163 1.23563C19.8584 1.09077 19.7721 0.959177 19.6626 0.84872C19.5531 0.738264 19.4227 0.65121 19.2791 0.592756C19.1355 0.534301 18.9817 0.505645 18.8269 0.508506C18.6721 0.511367 18.5194 0.545679 18.378 0.609399C18.2367 0.673118 18.1095 0.764934 18.0041 0.87936L18.0026 0.88233Z" fill="#0070ED"/>
<path d="M8.00262 0.88233L0.338096 8.61474C0.230933 8.72245 0.145911 8.85044 0.0878924 8.99137C0.0298738 9.1323 -3.9869e-07 9.28341 -3.9194e-07 9.43602C-3.85191e-07 9.58862 0.0298738 9.73972 0.0878925 9.88066C0.145911 10.0216 0.230933 10.1496 0.338096 10.2573L8.00262 17.9867C8.22108 18.1916 8.50977 18.3029 8.80795 18.2974C9.10613 18.2919 9.39058 18.1699 9.60146 17.9572C9.81235 17.7444 9.93322 17.4575 9.93869 17.1567C9.94415 16.8558 9.83377 16.5646 9.63075 16.3442L2.78028 9.43305L9.63221 2.52191C9.74564 2.41557 9.83665 2.28726 9.89981 2.14464C9.96297 2.00201 9.99697 1.848 9.99981 1.69182C10.0026 1.53564 9.97425 1.38049 9.91631 1.23563C9.85837 1.09077 9.77207 0.959177 9.66258 0.84872C9.5531 0.738264 9.42266 0.65121 9.27907 0.592756C9.13549 0.534301 8.9817 0.505645 8.82688 0.508506C8.67207 0.511367 8.51942 0.545679 8.37805 0.609399C8.23668 0.673118 8.10949 0.764934 8.00409 0.87936L8.00262 0.88233Z" fill="#0070ED"/>
<path opacity="0.35" d="M28.0026 0.88233L20.3381 8.61474C20.2309 8.72245 20.1459 8.85044 20.0879 8.99137C20.0299 9.1323 20 9.28341 20 9.43602C20 9.58862 20.0299 9.73972 20.0879 9.88066C20.1459 10.0216 20.2309 10.1496 20.3381 10.2573L28.0026 17.9867C28.2211 18.1916 28.5098 18.3029 28.808 18.2974C29.1061 18.2919 29.3906 18.1699 29.6015 17.9572C29.8123 17.7444 29.9332 17.4575 29.9387 17.1567C29.9441 16.8558 29.8338 16.5646 29.6307 16.3442L22.7803 9.43305L29.6322 2.52191C29.7456 2.41557 29.8366 2.28726 29.8998 2.14464C29.963 2.00201 29.997 1.848 29.9998 1.69182C30.0026 1.53564 29.9742 1.38049 29.9163 1.23563C29.8584 1.09077 29.7721 0.959177 29.6626 0.84872C29.5531 0.738264 29.4227 0.65121 29.2791 0.592756C29.1355 0.534301 28.9817 0.505645 28.8269 0.508506C28.6721 0.511367 28.5194 0.545679 28.378 0.609399C28.2367 0.673118 28.1095 0.764934 28.0041 0.87936L28.0026 0.88233Z" fill="#0070ED"/>
</svg>
