<svg width="20" height="20" viewBox="0 0 20 20" fill="none" xmlns="http://www.w3.org/2000/svg">
<path d="M15.7477 12.4461L10.5317 7.23009C10.459 7.15716 10.3727 7.0993 10.2776 7.05981C10.1826 7.02033 10.0806 7 9.9777 7C9.87476 7 9.77283 7.02033 9.67776 7.05981C9.58269 7.0993 9.49636 7.15716 9.4237 7.23009L4.2097 12.4461C4.07154 12.5948 3.99642 12.7912 4.00013 12.9941C4.00385 13.1971 4.08611 13.3907 4.22963 13.5342C4.37314 13.6777 4.56672 13.7599 4.76964 13.7637C4.97257 13.7674 5.16903 13.6923 5.3177 13.5541L9.9797 8.89209L14.6417 13.5551C14.7134 13.6323 14.8 13.6942 14.8962 13.7372C14.9924 13.7802 15.0963 13.8033 15.2016 13.8053C15.307 13.8072 15.4117 13.7879 15.5094 13.7484C15.6071 13.709 15.6959 13.6503 15.7704 13.5758C15.8449 13.5013 15.9036 13.4125 15.943 13.3148C15.9825 13.217 16.0018 13.1124 15.9999 13.007C15.9979 12.9017 15.9748 12.7978 15.9318 12.7016C15.8888 12.6054 15.8269 12.5188 15.7497 12.4471L15.7477 12.4461Z" fill="#0070ED"/>
</svg>
