<svg width="15" height="9" viewBox="0 0 15 9" fill="none" xmlns="http://www.w3.org/2000/svg">
<path d="M2.18488 0.993153L2.18487 0.993141C2.02687 0.83718 1.81326 0.750134 1.5912 0.750134C1.36914 0.750134 1.15553 0.83718 0.997533 0.993141C0.839425 1.14921 0.75 1.36158 0.75 1.58372C0.75 1.80585 0.839425 2.01822 0.997533 2.17429L6.90616 8.00676C6.9062 8.00679 6.90623 8.00683 6.90626 8.00686C6.98448 8.08413 7.07718 8.14526 7.17898 8.18692C7.28082 8.22859 7.38987 8.25 7.49993 8.25C7.60999 8.25 7.71904 8.22859 7.82088 8.18692C7.92269 8.14526 8.01538 8.08414 8.0936 8.00686C8.09363 8.00683 8.09367 8.00679 8.0937 8.00676L14.0022 2.17439C14.0023 2.17435 14.0023 2.17432 14.0023 2.17429C14.0806 2.09707 14.1429 2.00521 14.1855 1.90387C14.228 1.80247 14.25 1.69367 14.25 1.58372C14.25 1.47376 14.228 1.36496 14.1855 1.26356C14.1429 1.16218 14.0806 1.07028 14.0022 0.993043M2.18488 0.993153L13.8267 1.17106M2.18488 0.993153L7.49993 6.2404M2.18488 0.993153L12.8149 0.99324L7.49993 6.2404M14.0022 0.993043L13.8267 1.17106M14.0022 0.993043C14.0023 0.993108 14.0024 0.993174 14.0024 0.993238L13.8267 1.17106M14.0022 0.993043C13.924 0.915818 13.8314 0.85472 13.7296 0.813081C13.6278 0.771407 13.5187 0.75 13.4087 0.75C13.2986 0.75 13.1896 0.771407 13.0877 0.813081C12.9859 0.85474 12.8932 0.915875 12.815 0.993153L12.9906 1.17106C13.0455 1.11683 13.1107 1.07381 13.1824 1.04446C13.2541 1.01511 13.331 1 13.4087 1C13.4863 1 13.5632 1.01511 13.6349 1.04446C13.7067 1.07381 13.7718 1.11683 13.8267 1.17106M7.49993 6.2404L7.67557 6.4138L7.49993 6.5917L7.32429 6.4138L7.49993 6.2404Z" fill="white" stroke="white" stroke-width="0.5"/>
</svg>
