<svg width="15" height="9" viewBox="0 0 15 9" fill="none" xmlns="http://www.w3.org/2000/svg">
<path d="M2.18488 8.00685L2.18487 8.00686C2.02687 8.16282 1.81326 8.24987 1.5912 8.24987C1.36914 8.24987 1.15553 8.16282 0.997533 8.00686C0.839425 7.85079 0.75 7.63842 0.75 7.41628C0.75 7.19415 0.839425 6.98178 0.997533 6.82571L6.90616 0.993239C6.9062 0.993207 6.90623 0.993174 6.90626 0.993142C6.98448 0.915871 7.07718 0.854739 7.17898 0.813082C7.28082 0.771409 7.38987 0.75 7.49993 0.75C7.60999 0.75 7.71904 0.771409 7.82088 0.813082C7.92269 0.854742 8.01538 0.915863 8.0936 0.993142C8.09363 0.993169 8.09367 0.993212 8.0937 0.993239L14.0022 6.82561C14.0023 6.82565 14.0023 6.82568 14.0023 6.82571C14.0806 6.90293 14.1429 6.99479 14.1855 7.09613C14.228 7.19753 14.25 7.30633 14.25 7.41628C14.25 7.52624 14.228 7.63504 14.1855 7.73644C14.1429 7.83782 14.0806 7.92972 14.0022 8.00696M2.18488 8.00685L13.8267 7.82894M2.18488 8.00685L7.49993 2.7596M2.18488 8.00685L12.8149 8.00676L7.49993 2.7596M14.0022 8.00696L13.8267 7.82894M14.0022 8.00696C14.0023 8.00689 14.0024 8.00683 14.0024 8.00676L13.8267 7.82894M14.0022 8.00696C13.924 8.08418 13.8314 8.14528 13.7296 8.18692C13.6278 8.22859 13.5187 8.25 13.4087 8.25C13.2986 8.25 13.1896 8.22859 13.0877 8.18692C12.9859 8.14526 12.8932 8.08412 12.815 8.00685L12.9906 7.82894C13.0455 7.88317 13.1107 7.92619 13.1824 7.95554C13.2541 7.98489 13.331 8 13.4087 8C13.4863 8 13.5632 7.98489 13.6349 7.95554C13.7067 7.92619 13.7718 7.88317 13.8267 7.82894M7.49993 2.7596L7.67557 2.5862L7.49993 2.4083L7.32429 2.5862L7.49993 2.7596Z" fill="#64646F" stroke="#64646F" stroke-width="0.5"/>
</svg>
