Copy
<svg xmlns="http://www.w3.org/2000/svg" width="18" height="18" viewBox="0 0 18 18" fill="none">
<path d="M13.6138 5.38598C13.4919 5.2635 13.3471 5.1663 13.1876 5.09998C13.0281 5.03366 12.857 4.99951 12.6843 4.99951C12.5115 4.99951 12.3405 5.03366 12.1809 5.09998C12.0214 5.1663 11.8766 5.2635 11.7548 5.38598L7.33276 9.81898L6.24276 8.72798C5.99365 8.49188 5.66215 8.36245 5.31896 8.36728C4.97577 8.37211 4.64805 8.51082 4.40568 8.75384C4.16331 8.99687 4.02548 9.32496 4.02157 9.66816C4.01766 10.0114 4.14799 10.3425 4.38476 10.591L6.39976 12.614C6.52159 12.7365 6.66642 12.8337 6.82594 12.9C6.98545 12.9663 7.1565 13.0005 7.32926 13.0005C7.50201 13.0005 7.67307 12.9663 7.83258 12.9C7.9921 12.8337 8.13693 12.7365 8.25876 12.614L13.6138 7.24998C13.8606 7.00285 13.9993 6.66781 13.9993 6.31848C13.9993 5.96916 13.8606 5.63312 13.6138 5.38598Z" fill="white"/>
</svg>