<svg width="20" height="20" viewBox="0 0 20 20" fill="none" xmlns="http://www.w3.org/2000/svg">
<path fill-rule="evenodd" clip-rule="evenodd" d="M3.16403 9.65925C4.16836 10.0039 4.96841 10.8445 5.30319 11.91L5.33919 12.018C5.72257 13.1483 5.56688 14.3651 4.92432 15.2776C4.80732 15.4432 4.83342 15.6412 4.95671 15.7348L6.8214 17.1513C6.88709 17.2008 6.95099 17.2008 6.99059 17.1963C7.03558 17.1891 7.10128 17.1648 7.15438 17.0892L7.36226 16.794C7.98232 15.9148 8.98126 15.3721 10.036 15.3415C11.2203 15.3172 12.2841 15.8599 12.9464 16.8165L13.0526 16.9704C13.1057 17.046 13.1705 17.0712 13.2164 17.0784C13.256 17.0865 13.3208 17.0838 13.3856 17.0334L15.2404 15.634C15.37 15.5368 15.3988 15.3289 15.3025 15.1894L15.0685 14.8519C14.4655 13.9808 14.2864 12.8505 14.5897 11.829C14.9191 10.7167 15.7569 9.83654 16.8324 9.47656L17.0133 9.41537C17.1581 9.36767 17.2364 9.18768 17.1851 9.02209L16.4769 6.75334C16.4436 6.64714 16.3752 6.59945 16.3374 6.57965C16.2834 6.55175 16.2249 6.54725 16.1691 6.56615L15.8631 6.66784C14.8165 7.01612 13.6619 6.82713 12.7754 6.16027L12.6782 6.08738C11.8359 5.45382 11.3346 4.43238 11.3382 3.35605L11.34 3.10407C11.34 2.98438 11.2833 2.90968 11.2491 2.87548C11.2167 2.84218 11.1618 2.80259 11.0844 2.80259L8.79227 2.79989C8.65188 2.79989 8.53759 2.93398 8.53669 3.09957L8.53579 3.31735C8.53129 4.41078 8.01922 5.45112 7.16607 6.10178L7.04998 6.18997C6.11134 6.90363 4.88742 7.10521 3.77869 6.72724C3.73639 6.71284 3.69679 6.71554 3.659 6.73534C3.6302 6.74974 3.578 6.78663 3.5528 6.86853L2.81755 9.20478C2.76445 9.37487 2.85175 9.55216 3.01644 9.60886L3.16403 9.65925ZM6.95364 18.9989C6.51627 18.9989 6.0915 18.8567 5.73332 18.584L3.86864 17.1684C2.97769 16.4934 2.78061 15.1948 3.42857 14.2742C3.76514 13.7972 3.83444 13.1843 3.63645 12.603L3.58696 12.4518C3.42227 11.928 3.04609 11.5212 2.58082 11.3619H2.57992L2.43323 11.3106C1.3371 10.9354 0.752135 9.77355 1.10041 8.66481L1.83477 6.32946C2.00126 5.8012 2.36033 5.37462 2.8463 5.12894C3.32147 4.88955 3.85874 4.85266 4.36091 5.02455C4.89997 5.20813 5.49844 5.10824 5.96011 4.75726L6.0762 4.66907C6.48657 4.35589 6.73406 3.84742 6.73586 3.31015L6.73676 3.09327C6.74126 1.93774 7.6637 1 8.79133 1H8.79493L11.0871 1.0027C11.6288 1.0036 12.14 1.21779 12.5252 1.60566C12.9239 2.00614 13.1417 2.5416 13.1399 3.11307L13.1381 3.36415C13.1363 3.87352 13.3693 4.35499 13.7626 4.65017L13.8589 4.72306C14.272 5.03355 14.8101 5.12264 15.2934 4.96065L15.5985 4.85896C16.1178 4.68617 16.6703 4.72846 17.1572 4.97775C17.6567 5.23333 18.0256 5.6734 18.1948 6.21787L18.9031 8.48663C19.2451 9.58276 18.6529 10.7653 17.5847 11.1226L17.4038 11.1829C16.8854 11.3574 16.4777 11.7894 16.3149 12.3402C16.1655 12.845 16.2519 13.4003 16.5479 13.8269L16.7819 14.1644C17.4245 15.0931 17.2193 16.3962 16.3248 17.0703L14.47 18.4706C14.0245 18.8072 13.4782 18.9431 12.9302 18.8558C12.3776 18.7667 11.8952 18.4607 11.5722 17.9945L11.466 17.8397C11.151 17.3862 10.647 17.1108 10.1187 17.1405C9.58958 17.1549 9.1324 17.406 8.83362 17.8307L8.62574 18.1259C8.29996 18.5876 7.81669 18.8891 7.26682 18.9755C7.16153 18.9917 7.05714 18.9989 6.95364 18.9989ZM10.0011 8.64943C9.25681 8.64943 8.65115 9.25509 8.65115 9.99934C8.65115 10.7436 9.25681 11.3493 10.0011 11.3493C10.7453 11.3493 11.351 10.7436 11.351 9.99934C11.351 9.25509 10.7453 8.64943 10.0011 8.64943ZM10.0008 13.1491C8.26395 13.1491 6.85104 11.7362 6.85104 9.99934C6.85104 8.26245 8.26395 6.84954 10.0008 6.84954C11.7377 6.84954 13.1506 8.26245 13.1506 9.99934C13.1506 11.7362 11.7377 13.1491 10.0008 13.1491Z" fill="#0070ED"/>
</svg>
