<svg width="72" height="72" viewBox="0 0 72 72" fill="none" xmlns="http://www.w3.org/2000/svg">
<g clip-path="url(#clip0_781_14513)">
<path fill-rule="evenodd" clip-rule="evenodd" d="M55.8172 66.0138C55.3349 66.4945 54.6816 66.7642 54.0006 66.7636H2.57168C1.89087 66.764 1.23776 66.4942 0.75562 66.0136C0.273481 65.5329 0.00173357 64.8806 0 64.1998C0.00173357 63.519 0.273481 62.8667 0.75562 62.386C1.23776 61.9053 1.89087 61.6356 2.57168 61.6359H7.71512V12.9273C7.7126 11.9163 7.91106 10.9148 8.29895 9.98114C8.68684 9.04748 9.25644 8.20026 9.97463 7.48866C10.6903 6.77186 11.5407 6.2038 12.477 5.81724C13.4132 5.43068 14.4167 5.23326 15.4296 5.23636H41.1434C42.1563 5.2333 43.1598 5.43074 44.096 5.8173C45.0322 6.20386 45.8827 6.77189 46.5984 7.48866C47.3166 8.20024 47.8862 9.04748 48.2741 9.98114C48.662 10.9148 48.8604 11.9162 48.8578 12.9273V28.3091H54.0006C55.0135 28.306 56.017 28.5035 56.9532 28.89C57.8894 29.2766 58.7399 29.8446 59.4556 30.5614C60.1738 31.2729 60.7433 32.12 61.1312 33.0535C61.5191 33.9871 61.7176 34.9884 61.7151 35.9994V48.8173C61.7169 49.498 61.9885 50.1502 62.4705 50.6309C62.9525 51.1115 63.6055 51.3814 64.2862 51.3812C64.9669 51.3814 65.6198 51.1115 66.1018 50.6309C66.5838 50.1502 66.8555 49.498 66.8572 48.8173V22.7428C66.8571 22.4073 66.7907 22.0751 66.6616 21.7654C66.5325 21.4556 66.3434 21.1745 66.1052 20.9383L59.8955 14.741C59.6559 14.5036 59.466 14.2209 59.3366 13.9095C59.2073 13.598 59.1412 13.2639 59.1421 12.9266C59.1413 12.5896 59.2075 12.2557 59.3368 11.9445C59.4661 11.6332 59.656 11.3508 59.8955 11.1135C60.134 10.8744 60.4177 10.6849 60.7299 10.5559C61.0421 10.427 61.3767 10.3611 61.7145 10.3621C62.0524 10.3611 62.3871 10.4269 62.6994 10.5559C63.0117 10.6849 63.2954 10.8744 63.5341 11.1135L69.7522 17.3042C70.4693 18.0167 71.0372 18.8649 71.4226 19.7994C71.81 20.7328 72.0069 21.7342 72.0019 22.7448V48.8199C72.0044 49.8309 71.8061 50.8324 71.4182 51.7661C71.0303 52.6997 70.4607 53.547 69.7425 54.2586C69.0268 54.9753 68.1763 55.5434 67.2401 55.9299C66.3039 56.3165 65.3003 56.5139 64.2874 56.5108C63.2745 56.5139 62.2711 56.3165 61.3349 55.9299C60.3986 55.5434 59.5482 54.9753 58.8325 54.2586C58.1143 53.547 57.5447 52.6997 57.1568 51.7661C56.7689 50.8324 56.5705 49.8309 56.573 48.8199V36C56.5713 35.3193 56.2996 34.6671 55.8176 34.1865C55.3356 33.7058 54.6826 33.436 54.0019 33.4361H48.8592V61.6359H54.0019C54.6826 61.6358 55.3356 61.9056 55.8176 62.3862C56.2996 62.8669 56.5713 63.5191 56.573 64.1998C56.5713 64.8807 56.2995 65.5331 55.8172 66.0138ZM32.6494 52.1962L32.6494 52.1967L33.0264 52.27C33.6746 52.402 34.3338 52.4721 34.9953 52.4795C35.1796 52.4894 35.3631 52.4796 35.543 52.4509C35.7724 52.4145 35.9957 52.3473 36.207 52.2512C36.3993 52.1639 36.5817 52.0527 36.7495 51.9192C36.9745 51.7019 37.1489 51.4377 37.2604 51.1454C37.3718 50.8531 37.4175 50.5398 37.3942 50.2279C37.4145 49.9919 37.3859 49.7542 37.3102 49.5298C37.2345 49.3053 37.1134 49.0989 36.9543 48.9234C36.5849 48.6327 36.1645 48.4152 35.7156 48.2816C35.6252 48.2547 35.5336 48.2312 35.441 48.2112C34.9596 48.1011 34.4936 47.9322 34.0534 47.7085C33.9457 47.6315 33.8601 47.5277 33.805 47.4074C33.7499 47.287 33.7272 47.1544 33.7392 47.0226C33.7392 46.5153 34.0403 46.2127 34.6353 46.1202C34.7655 46.1004 34.9097 46.0905 35.0682 46.0905C35.4714 46.0905 36.1634 46.1472 37.1444 46.2607L37.2386 45.3181L37.2369 45.3178L37.2371 45.3155L36.8705 45.25C36.2415 45.1347 35.6039 45.0716 34.9645 45.0615C34.3405 45.0259 33.7227 45.2011 33.2104 45.559C32.9964 45.7369 32.8275 45.9629 32.7174 46.2185C32.6073 46.4741 32.5591 46.752 32.5767 47.0298C32.5629 47.1916 32.5706 47.3542 32.5995 47.5132C32.6168 47.6103 32.642 47.7062 32.6751 47.7997C32.7618 48.0454 32.9002 48.2697 33.081 48.4573C33.5273 48.811 34.0514 49.0533 34.61 49.1642C35.0719 49.251 35.5172 49.41 35.9296 49.6355C35.9834 49.6776 36.0313 49.7266 36.0719 49.7809C36.1055 49.8266 36.1342 49.876 36.1572 49.9283C36.2082 50.0442 36.23 50.1709 36.2206 50.2972C36.2206 51.0618 35.784 51.4493 34.922 51.4493C34.1988 51.4303 33.4775 51.3673 32.762 51.2607L32.7642 51.264L32.649 52.1961L32.6494 52.1962ZM18.9816 48.5674C18.9464 47.6544 19.1691 46.7485 19.6261 45.9543C19.8923 45.6398 20.2313 45.3951 20.6138 45.2418C20.9963 45.0884 21.4104 45.031 21.8202 45.0746C22.3779 45.0811 22.9343 45.1274 23.4851 45.2131C23.621 45.2341 23.7565 45.2576 23.8916 45.2834L24.0244 45.3102L24.2603 45.3574L24.2184 46.2764C24.2177 46.2763 24.217 46.2762 24.2163 46.2761L24.2162 46.279C23.4631 46.1743 22.704 46.1183 21.9437 46.1114C21.6854 46.0814 21.4237 46.1176 21.1832 46.2165C20.9523 46.3115 20.7482 46.4614 20.5886 46.653C20.5828 46.6601 20.577 46.6672 20.5713 46.6743C20.2663 47.328 20.1381 48.0502 20.1995 48.7689C20.1427 49.4904 20.2631 50.2149 20.5504 50.8791C20.7146 51.0926 20.9324 51.2587 21.1816 51.3608C21.4309 51.4629 21.7026 51.4972 21.9694 51.4604C22.3504 51.4725 22.7316 51.4418 23.1057 51.3687V49.6198H22.2181V49.6198H22.2179V48.5934H24.2601V48.5935H24.2603V52.238C24.2602 52.238 24.2601 52.238 24.2601 52.238V52.2386C23.8817 52.3149 23.4989 52.3674 23.114 52.3957C22.5281 52.452 22.1191 52.4795 21.8618 52.4795C21.6324 52.4795 21.4176 52.4659 21.2176 52.4388C20.5827 52.354 20.1006 52.1344 19.7714 51.7799C19.7127 51.7171 19.659 51.6501 19.6102 51.5788C19.5402 51.4518 19.4759 51.3221 19.4174 51.1902C19.0791 50.4281 18.932 49.5925 18.9923 48.7564C18.9875 48.6934 18.9839 48.6304 18.9816 48.5674ZM30.3138 52.3637H30.3136L29.9262 50.8248H27.1721L27.1741 50.8255L26.7872 52.3643H25.6248L25.6249 52.3637H25.6218L27.389 45.1898H29.7061L29.7063 45.1905H29.7066L31.4869 52.3643H30.314L30.3138 52.3637ZM16.0841 10.3085C15.9817 10.3086 15.8798 10.3135 15.7787 10.3231C14.1142 10.4769 12.8109 11.8771 12.8109 13.5818V30.1634C12.8109 31.9709 14.2762 33.4361 16.0837 33.4361H40.489C42.2965 33.4361 43.7618 31.9709 43.7618 30.1634V13.5818C43.7618 11.7743 42.2965 10.3091 40.489 10.3091H39.124L16.0841 10.3085ZM29.693 49.7978L27.4077 49.7978L28.298 46.1638L28.816 46.1638L29.693 49.7978Z" fill="#D0D0DA"/>
<path d="M28.4728 30.1092C32.9915 30.1092 36.6547 26.4461 36.6547 21.9274C36.6547 17.4087 32.9915 13.7456 28.4728 13.7456C23.9541 13.7456 20.291 17.4087 20.291 21.9274C20.291 26.4461 23.9541 30.1092 28.4728 30.1092Z" fill="#383736"/>
<path fill-rule="evenodd" clip-rule="evenodd" d="M28.3754 24.8634L24.835 22.9999L28.3793 15.8379L31.9283 23.0026L28.3754 24.8634Z" fill="white"/>
<path fill-rule="evenodd" clip-rule="evenodd" d="M28.3783 28.0201L24.8379 23.397L28.3783 25.3397L31.9312 23.397L28.3783 28.0201Z" fill="white"/>
</g>
<defs>
<clipPath id="clip0_781_14513">
<rect width="72" height="72" fill="white"/>
</clipPath>
</defs>
</svg>
