<svg width="180" height="24" viewBox="0 0 180 24" fill="none" xmlns="http://www.w3.org/2000/svg">
<path fill-rule="evenodd" clip-rule="evenodd" d="M174 9L179 12L174 15V9Z" fill="#484848" stroke="#484848" stroke-width="2" stroke-linejoin="round"/>
<path d="M10 12H176" stroke="#484848" stroke-width="2"/>
<path opacity="0.2" fill-rule="evenodd" clip-rule="evenodd" d="M10 22C15.5228 22 20 17.5228 20 12C20 6.47715 15.5228 2 10 2C4.47715 2 0 6.47715 0 12C0 17.5228 4.47715 22 10 22Z" fill="#484848"/>
<path fill-rule="evenodd" clip-rule="evenodd" d="M10 18C13.3137 18 16 15.3137 16 12C16 8.68629 13.3137 6 10 6C6.68629 6 4 8.68629 4 12C4 15.3137 6.68629 18 10 18Z" fill="#484848"/>
<path d="M100 12C100 17.52 95.52 22 90 22C84.48 22 80 17.52 80 12C80 6.48 84.48 2 90 2C95.52 2 100 6.48 100 12Z" fill="#191919" stroke="#F1F1F1" stroke-width="1.5" stroke-linecap="round" stroke-linejoin="round"/>
<path d="M93.7109 15.18L90.6109 13.33C90.0709 13.01 89.6309 12.24 89.6309 11.61V7.51001" stroke="#F1F1F1" stroke-width="1.5" stroke-linecap="round" stroke-linejoin="round"/>
</svg>
