<svg width="180" height="24" viewBox="0 0 180 24" fill="none" xmlns="http://www.w3.org/2000/svg">
<path fill-rule="evenodd" clip-rule="evenodd" d="M6 9L1 12L6 15V9Z" fill="#484848" stroke="#484848" stroke-width="2" stroke-linejoin="round"/>
<path d="M170 12H3.99999" stroke="#484848" stroke-width="2"/>
<path opacity="0.2" fill-rule="evenodd" clip-rule="evenodd" d="M170 22C164.477 22 160 17.5228 160 12C160 6.47715 164.477 2 170 2C175.523 2 180 6.47715 180 12C180 17.5228 175.523 22 170 22Z" fill="#484848"/>
<path fill-rule="evenodd" clip-rule="evenodd" d="M170 18C166.686 18 164 15.3137 164 12C164 8.68629 166.686 6 170 6C173.314 6 176 8.68629 176 12C176 15.3137 173.314 18 170 18Z" fill="#484848"/>
<path d="M100 12C100 17.52 95.52 22 90 22C84.48 22 80 17.52 80 12C80 6.48 84.48 2 90 2C95.52 2 100 6.48 100 12Z" fill="#191919" stroke="#F1F1F1" stroke-width="1.5" stroke-linecap="round" stroke-linejoin="round"/>
<path d="M93.7109 15.18L90.6109 13.33C90.0709 13.01 89.6309 12.24 89.6309 11.61V7.51001" stroke="#F1F1F1" stroke-width="1.5" stroke-linecap="round" stroke-linejoin="round"/>
</svg>
