<svg width="20" height="20" viewBox="0 0 20 20" fill="none" xmlns="http://www.w3.org/2000/svg">
<g clip-path="url(#clip0_1138_16380)">
<path d="M17.535 4.79902C16.1564 3.71531 14.4754 3.08636 12.724 2.99902L12.484 3.27402C14.0432 3.68862 15.4966 4.42964 16.748 5.44802C15.1531 4.56972 13.402 4.01127 11.593 3.80402C10.4428 3.67762 9.28149 3.68937 8.13402 3.83902C8.03621 3.84178 7.93883 3.85316 7.84302 3.87302C6.49897 4.02594 5.18749 4.39009 3.95702 4.95202C3.32302 5.24302 2.94702 5.45202 2.94702 5.45202C4.26412 4.383 5.80052 3.61719 7.44702 3.20902L7.27602 3.00303C5.52465 3.09036 3.84361 3.71931 2.46503 4.80302C0.897801 7.90071 0.0545894 11.3139 -0.000976562 14.785C0.590201 15.6131 1.37578 16.2834 2.28668 16.7367C3.19758 17.1901 4.20591 17.4127 5.22302 17.385C5.22302 17.385 5.85602 16.615 6.36902 15.964C5.16398 15.6613 4.10273 14.9467 3.36902 13.944C3.36902 13.944 3.54003 14.064 3.84903 14.235C3.86859 14.2558 3.89159 14.2731 3.91702 14.286C3.96902 14.32 4.01702 14.337 4.07202 14.371C4.47465 14.5941 4.89233 14.7889 5.32202 14.954C6.13661 15.2752 6.97876 15.5216 7.83803 15.69C9.30247 15.9711 10.8065 15.9768 12.273 15.707C13.1265 15.5579 13.96 15.3109 14.757 14.971C15.4491 14.7092 16.1096 14.3704 16.726 13.961C15.9656 14.9848 14.8675 15.7064 13.626 15.998C14.14 16.648 14.756 17.384 14.756 17.384C15.775 17.4101 16.7849 17.1868 17.698 16.7337C18.611 16.2806 19.3995 15.6113 19.995 14.784C19.9415 11.3124 19.1003 7.89822 17.535 4.79902ZM6.79903 13.184C6.31649 13.1609 5.86253 12.9485 5.53566 12.5928C5.20878 12.237 5.03536 11.7668 5.05302 11.284C5.04283 11.0446 5.07991 10.8055 5.16216 10.5804C5.2444 10.3554 5.37019 10.1487 5.53233 9.97224C5.69448 9.79579 5.8898 9.65302 6.10715 9.55209C6.32449 9.45116 6.5596 9.39405 6.79903 9.38402C7.03892 9.39261 7.27473 9.44875 7.49275 9.54919C7.71078 9.64963 7.90668 9.79237 8.06911 9.96912C8.23153 10.1459 8.35724 10.3531 8.43893 10.5788C8.52063 10.8046 8.5567 11.0443 8.54503 11.284C8.55522 11.5234 8.51814 11.7625 8.4359 11.9876C8.35366 12.2127 8.22787 12.4194 8.06572 12.5958C7.90357 12.7723 7.70824 12.915 7.49089 13.016C7.27355 13.1169 7.03845 13.174 6.79903 13.184ZM13.049 13.184C12.5665 13.1609 12.1125 12.9485 11.7857 12.5928C11.4588 12.237 11.2854 11.7668 11.303 11.284C11.2928 11.0446 11.3299 10.8055 11.4122 10.5804C11.4944 10.3554 11.6202 10.1487 11.7823 9.97224C11.9445 9.79579 12.1398 9.65302 12.3571 9.55209C12.5745 9.45116 12.8096 9.39405 13.049 9.38402C13.2885 9.39405 13.5235 9.45116 13.7409 9.55209C13.9582 9.65302 14.1536 9.79579 14.3157 9.97224C14.4779 10.1487 14.6037 10.3554 14.6859 10.5804C14.7681 10.8055 14.8052 11.0446 14.795 11.284C14.8052 11.5234 14.7681 11.7625 14.6859 11.9876C14.6037 12.2127 14.4779 12.4194 14.3157 12.5958C14.1536 12.7723 13.9582 12.915 13.7409 13.016C13.5235 13.1169 13.2885 13.174 13.049 13.184Z" fill="#C7D1D8"/>
</g>
<defs>
<clipPath id="clip0_1138_16380">
<rect width="20" height="20" fill="white"/>
</clipPath>
</defs>
</svg>
