<svg width="20" height="20" viewBox="0 0 20 20" fill="none" xmlns="http://www.w3.org/2000/svg">
<g clip-path="url(#clip0_1138_16370)">
<path d="M5.677 15.354C8.81232 15.354 11.354 12.8123 11.354 9.677C11.354 6.54168 8.81232 4 5.677 4C2.54168 4 0 6.54168 0 9.677C0 12.8123 2.54168 15.354 5.677 15.354Z" fill="#C7D1D8"/>
<path d="M14.7037 14.9898C16.2363 14.9898 17.4787 12.6111 17.4787 9.67677C17.4787 6.74248 16.2363 4.36377 14.7037 4.36377C13.1711 4.36377 11.9287 6.74248 11.9287 9.67677C11.9287 12.6111 13.1711 14.9898 14.7037 14.9898Z" fill="#C7D1D8"/>
<path d="M18.9847 14.4488C19.5453 14.4488 19.9997 12.3123 19.9997 9.67678C19.9997 7.04128 19.5453 4.90479 18.9847 4.90479C18.4242 4.90479 17.9697 7.04128 17.9697 9.67678C17.9697 12.3123 18.4242 14.4488 18.9847 14.4488Z" fill="#C7D1D8"/>
</g>
<defs>
<clipPath id="clip0_1138_16370">
<rect width="20" height="20" fill="white"/>
</clipPath>
</defs>
</svg>
