<svg width="20" height="20" viewBox="0 0 20 20" fill="none" xmlns="http://www.w3.org/2000/svg">
<g clip-path="url(#clip0_1138_16360)">
<path fill-rule="evenodd" clip-rule="evenodd" d="M8.69834 12.2019C8.86134 11.0329 17.3983 4.6519 15.3863 5.7159L9.96433 8.8559C6.75533 10.8049 6.98834 10.4939 7.66434 12.8139C7.78152 13.4049 7.96291 13.9813 8.20532 14.5329C8.58332 14.9849 8.69035 12.2329 8.69535 12.2019M5.69535 10.9399C6.00235 11.0609 5.93534 11.0199 6.03934 11.3759C6.27034 12.1609 6.51033 12.8849 6.74533 13.6629C7.53933 16.3039 7.44533 16.3189 8.57233 15.3989C10.4383 13.8809 10.2653 13.7319 11.3363 14.4879L14.4243 16.7399C15.3024 17.4039 15.3483 16.0599 15.4993 15.3399L17.9743 3.5349C18.0293 3.3049 17.9973 3.1639 17.9123 3.0839C17.7333 2.9169 17.3213 3.0239 16.9913 3.1579L3.83133 8.2329C-0.113668 9.7169 3.17434 9.9499 5.69434 10.9399H5.69535Z" fill="#C7D1D8"/>
</g>
<defs>
<clipPath id="clip0_1138_16360">
<rect width="20" height="20" fill="white"/>
</clipPath>
</defs>
</svg>
