<svg width="10" height="8" viewBox="0 0 10 8" fill="none" xmlns="http://www.w3.org/2000/svg">
<path d="M9.61376 0.385984C9.49193 0.263501 9.3471 0.166304 9.18758 0.0999795C9.02807 0.0336552 8.85701 -0.000488281 8.68426 -0.000488281C8.51151 -0.000488281 8.34045 0.0336552 8.18094 0.0999795C8.02142 0.166304 7.87659 0.263501 7.75476 0.385984L3.33276 4.81898L2.24276 3.72798C1.99365 3.49188 1.66215 3.36245 1.31896 3.36728C0.975773 3.37211 0.648051 3.51082 0.405682 3.75384C0.163314 3.99687 0.0254785 4.32496 0.0215698 4.66816C0.0176611 5.01136 0.147988 5.34251 0.384759 5.59098L2.39976 7.61398C2.52159 7.73647 2.66642 7.83366 2.82594 7.89999C2.98545 7.96631 3.1565 8.00046 3.32926 8.00046C3.50201 8.00046 3.67307 7.96631 3.83258 7.89999C3.9921 7.83366 4.13693 7.73647 4.25876 7.61398L9.61376 2.24998C9.86065 2.00285 9.99933 1.66781 9.99933 1.31848C9.99933 0.969158 9.86065 0.633119 9.61376 0.385984Z" fill="white"/>
</svg>
