<svg width="18" height="18" viewBox="0 0 18 18" fill="none" xmlns="http://www.w3.org/2000/svg">
<path d="M10.875 4.25H4.125C3.82663 4.25 3.54048 4.36853 3.3295 4.5795C3.11853 4.79048 3 5.07663 3 5.375V16.0625C3 16.1659 3.02847 16.2672 3.08229 16.3554C3.13612 16.4437 3.21321 16.5154 3.30511 16.5627C3.39701 16.61 3.50016 16.631 3.60324 16.6235C3.70632 16.6161 3.80535 16.5803 3.88945 16.5202L7.5 13.9412L11.1112 16.5202C11.1953 16.5801 11.2943 16.6157 11.3973 16.6231C11.5003 16.6305 11.6033 16.6094 11.6951 16.5621C11.7868 16.5148 11.8638 16.4432 11.9176 16.3551C11.9714 16.267 11.9999 16.1657 12 16.0625V5.375C12 5.07663 11.8815 4.79048 11.6705 4.5795C11.4595 4.36853 11.1734 4.25 10.875 4.25ZM10.875 14.9698L7.82625 12.7902C7.73085 12.722 7.61654 12.6854 7.4993 12.6854C7.38206 12.6854 7.26775 12.722 7.17234 12.7902L4.125 14.9691V5.375H10.875V14.9698ZM14.25 3.125V13.8125C14.25 13.9617 14.1907 14.1048 14.0852 14.2102C13.9798 14.3157 13.8367 14.375 13.6875 14.375C13.5383 14.375 13.3952 14.3157 13.2898 14.2102C13.1843 14.1048 13.125 13.9617 13.125 13.8125V3.125H5.8125C5.66332 3.125 5.52024 3.06574 5.41475 2.96025C5.30926 2.85476 5.25 2.71168 5.25 2.5625C5.25 2.41332 5.30926 2.27024 5.41475 2.16475C5.52024 2.05926 5.66332 2 5.8125 2H13.125C13.4234 2 13.7095 2.11853 13.9205 2.3295C14.1315 2.54048 14.25 2.82663 14.25 3.125Z" fill="#9D9EA5"/>
</svg>
