<svg width="57" height="50" viewBox="0 0 57 50" fill="none" xmlns="http://www.w3.org/2000/svg">
<path d="M51.75 9.25H6.75C6.15326 9.25 5.58097 9.01295 5.15901 8.59099C4.73705 8.16903 4.5 7.59674 4.5 7C4.5 6.40326 4.73705 5.83097 5.15901 5.40901C5.58097 4.98705 6.15326 4.75 6.75 4.75H45C45.5967 4.75 46.169 4.51295 46.591 4.09099C47.0129 3.66903 47.25 3.09674 47.25 2.5C47.25 1.90326 47.0129 1.33097 46.591 0.90901C46.169 0.487053 45.5967 0.25 45 0.25H6.75C4.95979 0.25 3.2429 0.961159 1.97703 2.22703C0.711159 3.4929 0 5.20979 0 7V43C0 44.7902 0.711159 46.5071 1.97703 47.773C3.2429 49.0388 4.95979 49.75 6.75 49.75H51.75C52.9435 49.75 54.0881 49.2759 54.932 48.432C55.7759 47.5881 56.25 46.4435 56.25 45.25V13.75C56.25 12.5565 55.7759 11.4119 54.932 10.568C54.0881 9.72411 52.9435 9.25 51.75 9.25ZM41.625 31.75C40.9575 31.75 40.305 31.5521 39.75 31.1812C39.1949 30.8104 38.7624 30.2833 38.5069 29.6666C38.2515 29.0499 38.1846 28.3713 38.3148 27.7166C38.4451 27.0619 38.7665 26.4605 39.2385 25.9885C39.7105 25.5165 40.3119 25.1951 40.9666 25.0648C41.6213 24.9346 42.2999 25.0015 42.9166 25.2569C43.5333 25.5124 44.0604 25.9449 44.4312 26.5C44.8021 27.055 45 27.7075 45 28.375C45 29.2701 44.6444 30.1285 44.0115 30.7615C43.3785 31.3944 42.5201 31.75 41.625 31.75Z" fill="#D0D0DA"/>
</svg>
