<svg width="21" height="19" viewBox="0 0 21 19" fill="none" xmlns="http://www.w3.org/2000/svg">
<path d="M20.7661 8.7774L15.75 0H5.25L5.01606 0.409465L0 9.18687L3.34362 15.0382L5.01564 17.966L5.24958 18.3759H15.7496L19.0932 12.5241L20.7652 9.59633L21 9.18687L20.7661 8.7774Z" fill="#05274C"/>
<path d="M19.8301 9.59631L18.6259 11.703H9.53039L10.7345 9.59631H19.8301ZM12.8656 14.6287H7.85669L9.06083 12.522H14.0693L12.8656 14.6287Z" fill="#85BCFA"/>
<path d="M8.36009 6.26118L5.24998 11.7052L4.04626 9.5963L7.15426 4.15445L8.36009 6.26118Z" fill="#2470ED"/>
<path d="M10.0314 9.18681L5.48368 17.1449L4.27954 15.0385L8.8294 7.08008L10.0314 9.18681Z" fill="#2470ED"/>
<path d="M10.7341 8.77738L6.18591 0.819336H8.59377L13.1415 8.77738H10.7341ZM14.0777 8.77738L11.4355 4.15488H13.8434L16.4856 8.77738H14.0777Z" fill="white"/>
</svg>
